<?xml version="1.0" encoding="iso-8859-1"?>
<!-- Generator: Adobe Illustrator 28.2.0, SVG Export Plug-In . SVG Version: 6.00 Build 0)  -->
<svg version="1.2" baseProfile="tiny" id="Layer_1" xmlns="http://www.w3.org/2000/svg" xmlns:xlink="http://www.w3.org/1999/xlink"
	 x="0px" y="0px" viewBox="0 0 562.318 89.604" overflow="visible" xml:space="preserve">
<g>
	<g>
		<polygon fill="#516873" points="90.314,43.387 70.444,38.42 74.539,36.08 89.052,27.353 5.268,27.353 19.8,36.09 23.876,38.42 
			4.006,43.387 		"/>
		<g>
			<g>
				<polyline fill="#171B32" points="86.987,27.353 5.267,27.353 6.58,28.142 87.482,28.297 89.045,27.357 86.987,27.353 				"/>
				<polyline fill="#171B32" points="10.133,30.279 12.492,31.697 81.665,31.795 84.012,30.383 10.133,30.279 				"/>
				<polyline fill="#171B32" points="15.258,33.36 18.4,35.248 75.846,35.294 78.979,33.41 15.258,33.36 				"/>
				<polyline fill="#171B32" points="73.913,36.437 20.407,36.437 23.875,38.42 22.372,38.795 71.947,38.795 70.444,38.42 
					73.913,36.437 				"/>
			</g>
		</g>
		<g>
			<polygon fill="#9D7D55" points="71.212,46.217 70.269,46.217 24.052,46.217 23.108,46.217 3.773,46.217 3.773,85.831 
				23.108,85.831 24.052,85.831 70.269,85.831 71.212,85.831 90.547,85.831 90.547,46.217 			"/>
			<path fill="#9D7D55" d="M71.205,3.773h-7.522h-0.416H30.485h-0.416h-5.906c-10.28,0-18.032,6.488-18.032,15.091v5.659h16.41
				h0.943h46.784h0.943h16.978v-5.659C88.189,10.736,78.85,3.773,71.205,3.773z"/>
			<g>
				<g>
					<path fill="#F29D33" d="M24.829,7.306h-8.716c-2.057,0.926-3.812,2.211-5.156,3.764l0,0h11.931l0,0
						C23.396,9.691,24.047,8.431,24.829,7.306"/>
					<path fill="#F29D33" d="M77.638,7.306h-8.715c0.782,1.125,1.433,2.385,1.941,3.764l0,0h11.921l0,0
						C81.331,9.54,79.539,8.245,77.638,7.306"/>
					<path fill="#F29D33" d="M63.764,7.306c-0.596,0-33.817,0-33.817,0c-0.311,0-0.615,0.122-0.826,0.351
						c-0.898,0.973-1.647,2.115-2.234,3.413l0,0h39.979l0,0c-0.577-1.275-1.31-2.4-2.187-3.362
						C64.679,7.708,64.359,7.306,63.764,7.306z"/>
				</g>
			</g>
			<polygon fill="none" points="22.165,42.444 24.995,42.444 24.995,42.444 69.325,42.444 69.325,42.444 72.155,42.444 
				72.155,42.444 82.654,42.444 74.77,40.473 67.938,38.765 74.052,35.271 85.654,28.296 8.667,28.296 20.268,35.271 26.382,38.765 
				19.55,40.473 11.667,42.444 22.165,42.444 			"/>
			<path fill="#171B32" d="M75.456,37.728l16.506-9.432v-9.432C91.962,8.446,80.696,0,71.205,0H24.163
				C11.384,0,2.358,8.446,2.358,18.864v9.432l16.506,9.432l-18.15,4.537C0.295,42.37,0,42.748,0,43.181v45.48
				c0,0.521,0.422,0.943,0.943,0.943h92.434c0.521,0,0.943-0.422,0.943-0.943v-45.48c0-0.433-0.295-0.81-0.714-0.915L75.456,37.728z
				 M88.661,48.386v35.276c0,0.156-0.127,0.283-0.283,0.283h-15.94c-0.156,0-0.283-0.127-0.283-0.283V48.386
				c0-0.156,0.127-0.283,0.283-0.283h15.94C88.534,48.103,88.661,48.23,88.661,48.386z M5.942,48.103h15.94
				c0.156,0,0.283,0.127,0.283,0.283v35.276c0,0.156-0.127,0.283-0.283,0.283H5.942c-0.156,0-0.283-0.127-0.283-0.283V48.386
				C5.659,48.23,5.786,48.103,5.942,48.103z M69.325,48.386v35.276c0,0.156-0.127,0.283-0.283,0.283H25.278
				c-0.156,0-0.283-0.127-0.283-0.283V48.386c0-0.156,0.127-0.283,0.283-0.283h43.765C69.199,48.103,69.325,48.23,69.325,48.386z
				 M8.3,22.637c-0.156,0-0.283-0.127-0.283-0.283v-3.49c0-7.528,6.941-13.205,16.146-13.205c0,0,1.398,0,1.634,0
				s0.222,0.148,0.155,0.223c-2.78,3.116-4.353,7.569-4.353,12.982v3.49c0,0.156-0.127,0.283-0.283,0.283H8.3z M86.02,22.637H72.438
				c-0.156,0-0.283-0.127-0.283-0.283v-3.49c0-5.409-1.571-9.859-4.347-12.975c-0.081-0.091-0.019-0.23,0.102-0.23l3.296,0
				c6.655,0,15.098,6.217,15.098,13.205v3.49C86.303,22.51,86.176,22.637,86.02,22.637z M31.175,5.659h31.402
				c0.373,0,0.745,0.101,1.052,0.312c3.62,2.484,5.696,6.967,5.696,12.893v3.49c0,0.156-0.127,0.283-0.283,0.283H24.71
				c-0.156,0-0.283-0.127-0.283-0.283v-3.49c0-5.925,2.076-10.409,5.696-12.893C30.431,5.76,30.802,5.659,31.175,5.659z
				 M19.55,40.473l6.832-1.708l-6.114-3.494L8.667,28.296h76.987l-11.601,6.975l-6.114,3.494l6.832,1.708l7.884,1.971H72.155v0
				h-2.83v0H24.995v0h-2.83v0H11.667L19.55,40.473z"/>
			<g>
				<path fill="#FFFFFF" d="M47.944,36.629c-19.99,0-26.599,2-36.196,5.798h36.425L47.944,36.629z"/>
				<path fill="#FFFFFF" d="M46.376,36.629c19.99,0,26.599,2,36.196,5.798H46.146L46.376,36.629z"/>
			</g>
		</g>
		<g>
			<path fill="#171B32" d="M65.662,49.225c0-10.541-8.861-19.052-19.526-18.474c-9.731,0.527-17.514,8.801-17.477,18.545
				c0.029,7.625,4.698,14.17,11.322,16.971c0.103,0.044,0.17,0.143,0.17,0.255v9.07c0,3.296,2.672,5.968,5.968,5.968h2.084
				c3.296,0,5.968-2.672,5.968-5.968v-9.07c0-0.112,0.067-0.211,0.17-0.254C60.985,63.457,65.662,56.88,65.662,49.225z
				 M48.202,76.843h-2.084c-0.691,0-1.252-0.56-1.252-1.252V64.649h0.879v-1.711c-6.939-0.711-12.371-6.589-12.371-13.713
				c0-7.601,6.184-13.786,13.786-13.786s13.786,6.184,13.786,13.786c0,7.124-5.432,13.003-12.371,13.713v1.711h0.879v10.943
				C49.454,76.283,48.894,76.843,48.202,76.843z"/>
			
				<ellipse transform="matrix(0.2058 -0.9786 0.9786 0.2058 -10.715 85.2477)" fill="#32B2F2" cx="47.16" cy="49.225" rx="11.899" ry="11.899"/>
			<path fill="#FFFFFF" d="M49.454,64.701h-0.879v-1.763c6.939-0.711,12.371-6.589,12.371-13.713
				c0-7.601-6.184-13.786-13.786-13.786s-13.786,6.184-13.786,13.786c0,7.124,5.432,13.002,12.371,13.713v1.763h-0.879v10.89
				c0,0.691,0.56,1.252,1.252,1.252h2.084c0.691,0,1.252-0.56,1.252-1.252V64.701z M35.261,49.225
				c0-6.572,5.327-11.899,11.899-11.899c6.572,0,11.899,5.327,11.899,11.899S53.732,61.124,47.16,61.124
				C40.588,61.124,35.261,55.797,35.261,49.225z"/>
		</g>
		<g>
			<path fill="#FFFFFF" d="M38.781,50.168c-0.521,0-0.943-0.422-0.943-0.943c0-5.141,4.182-9.322,9.322-9.322
				c0.521,0,0.943,0.422,0.943,0.943c0,0.521-0.422,0.943-0.943,0.943c-4.1,0-7.436,3.336-7.436,7.436
				C39.724,49.746,39.302,50.168,38.781,50.168z"/>
		</g>
	</g>
	<g>
		<path fill="none" d="M329.551,42.811c-8.262,0-13.915,4.817-15.577,12.279c-0.042,0.189,0.106,0.373,0.299,0.373h29.329
			c0.188,0,0.334-0.177,0.3-0.362C342.338,46.543,336.096,42.811,329.551,42.811z"/>
		<path fill="none" d="M222.639,42.811c-8.262,0-13.915,4.817-15.577,12.279c-0.042,0.189,0.106,0.373,0.299,0.373h29.329
			c0.188,0,0.334-0.177,0.3-0.362C235.426,46.543,229.184,42.811,222.639,42.811z"/>
		<path fill="none" d="M143.634,38.663h23.548c0.293,0,0.58-0.121,0.767-0.347c1.262-1.523,1.976-3.543,1.976-5.563
			c0-4.77-3.214-8.296-8.606-8.296h-17.685c-0.083,0-0.15,0.067-0.15,0.15v13.905C143.484,38.596,143.551,38.663,143.634,38.663z"/>
		<path fill="none" d="M167.851,49.343h-24.217c-0.083,0-0.15,0.067-0.15,0.15v25.001c0,0.083,0.067,0.15,0.15,0.15h24.114
			c8.088,0,12.547-5.703,12.547-12.65C180.295,54.944,175.939,49.343,167.851,49.343z"/>
		<path fill="#171B32" d="M179.257,41.153c1.659-2.696,2.593-5.703,2.593-8.918c0-10.784-8.4-18.976-20.531-18.976h-17.835H132.06
			c-0.276,0-0.5,0.224-0.5,0.5v71.583c0,0.276,0.224,0.5,0.5,0.5h2.092h35.152c13.168,0,22.915-10.265,22.915-23.33
			C192.219,52.973,187.138,44.989,179.257,41.153z M143.484,24.608c0-0.083,0.067-0.15,0.15-0.15h17.685
			c5.392,0,8.606,3.525,8.606,8.296c0,2.021-0.714,4.04-1.976,5.563c-0.187,0.226-0.474,0.347-0.767,0.347h-23.548
			c-0.083,0-0.15-0.067-0.15-0.15V24.608z M167.748,74.645h-24.114c-0.083,0-0.15-0.067-0.15-0.15V49.494
			c0-0.083,0.067-0.15,0.15-0.15h24.217c8.088,0,12.443,5.601,12.443,12.651C180.295,68.942,175.835,74.645,167.748,74.645z"/>
		<path fill="#171B32" d="M222.639,32.65c-16.175,0-27.167,11.925-27.167,27.271c0,15.553,10.887,27.27,27.374,27.27
			c11.347,0,20.22-5.841,23.618-15.393c0.116-0.327-0.137-0.674-0.484-0.671l-10.118,0.092c-0.356,0.003-0.67,0.201-0.853,0.506
			c-2.025,3.374-6.52,5.823-11.956,5.823c-7.868,0-14.124-4.228-15.893-12.488c-0.04-0.188,0.106-0.37,0.298-0.37l39.608,0
			c0.5,0,0.926-0.368,0.991-0.863c0.161-1.226,0.296-2.547,0.296-3.802C248.355,45.093,238.193,32.65,222.639,32.65z M236.69,55.463
			h-29.329c-0.193,0-0.341-0.184-0.299-0.373c1.663-7.461,7.315-12.279,15.577-12.279c6.544,0,12.787,3.732,14.35,12.289
			C237.024,55.286,236.878,55.463,236.69,55.463z"/>
		<path fill="#171B32" d="M280.134,32.65c-6.429,0-11.406,2.178-14.724,7.259v-5.41c0-0.276-0.224-0.5-0.5-0.5h-10.199
			c-0.276,0-0.5,0.224-0.5,0.5v50.844c0,0.276,0.224,0.5,0.5,0.5h10.199c0.276,0,0.5-0.224,0.5-0.5V56.084
			c0-9.539,5.288-12.96,11.094-12.96c5.496,0,9.54,3.317,9.54,9.953v32.266c0,0.276,0.224,0.5,0.5,0.5h10.198
			c0.276,0,0.5-0.224,0.5-0.5V52.454C297.243,40.012,289.777,32.65,280.134,32.65z"/>
		<path fill="#171B32" d="M329.551,32.65c-16.175,0-27.166,11.925-27.166,27.271c0,15.553,10.887,27.27,27.374,27.27
			c11.347,0,20.219-5.841,23.618-15.393c0.116-0.327-0.136-0.674-0.483-0.671l-10.118,0.092c-0.356,0.003-0.67,0.201-0.853,0.506
			c-2.025,3.374-6.52,5.823-11.957,5.823c-7.868,0-14.124-4.228-15.893-12.488c-0.04-0.188,0.106-0.37,0.298-0.37h39.608
			c0.5,0,0.926-0.368,0.991-0.863c0.161-1.226,0.297-2.547,0.297-3.802C355.267,45.093,345.105,32.65,329.551,32.65z
			 M343.601,55.463h-29.329c-0.193,0-0.341-0.184-0.299-0.373c1.663-7.461,7.315-12.279,15.577-12.279
			c6.545,0,12.787,3.732,14.35,12.289C343.936,55.286,343.79,55.463,343.601,55.463z"/>
		<path fill="#171B32" d="M402.254,33.999h-27.611c-0.166,0-0.3-0.134-0.3-0.3v-0.737c0-5.56,4.433-10.104,9.992-10.237
			c4.059-0.097,8.337,0.028,13.179,0.716c0.3,0.043,0.574-0.186,0.574-0.49c0-1.863,0-7.713,0-9.294
			c0-0.236-0.168-0.437-0.398-0.488c-3.891-0.869-7.498-1.257-11.008-1.257c-15.657,0-23.538,7.051-23.538,21.049
			c0,0,0,0.361,0,0.611c0,0.249-0.093,0.426-0.453,0.426s-6.926,0-6.926,0c-0.276,0-0.5,0.224-0.5,0.5v9.783
			c0,0.276,0.224,0.5,0.5,0.5h7.08c0.166,0,0.3,0.134,0.3,0.3v40.262c0,0.276,0.224,0.5,0.5,0.5h10.2c0.276,0,0.5-0.224,0.5-0.5
			V45.081c0-0.166,0.134-0.3,0.3-0.3h16.612c0.166,0,0.3,0.134,0.3,0.3v40.262c0,0.276,0.224,0.5,0.5,0.5h10.198
			c0.276,0,0.5-0.224,0.5-0.5V34.499C402.754,34.223,402.53,33.999,402.254,33.999z"/>
		<path fill="#171B32" d="M437.54,32.65c-6.428,0-11.405,2.178-14.724,7.259v-5.41c0-0.276-0.224-0.5-0.5-0.5h-10.198
			c-0.276,0-0.5,0.224-0.5,0.5v50.844c0,0.276,0.224,0.5,0.5,0.5h10.198c0.276,0,0.5-0.224,0.5-0.5V56.084
			c0-9.539,5.289-12.96,11.096-12.96c5.495,0,9.539,3.317,9.539,9.953v32.266c0,0.276,0.224,0.5,0.5,0.5h10.198
			c0.276,0,0.5-0.224,0.5-0.5V52.454C454.65,40.012,447.185,32.65,437.54,32.65z"/>
		<path fill="#171B32" d="M503.691,69.179l-1.94-0.882c-4.253,7.282-13.44,10.32-21.281,6.757
			c-8.367-3.802-12.081-13.702-8.279-22.068c3.802-8.366,13.701-12.08,22.068-8.278c7.841,3.563,11.595,12.482,8.907,20.475
			l1.94,0.882l0.44-0.968l9.461,4.299V13.76c0-0.276-0.224-0.5-0.5-0.5h-10.198c-0.276,0-0.5,0.224-0.5,0.5v27.704
			c-3.941-5.495-10.059-8.814-18.251-8.814c-14.101,0-25.714,11.821-25.714,27.271c0,15.346,11.613,27.27,25.714,27.27
			c8.192,0,14.309-3.421,18.251-8.813v6.965c0,0.276,0.224,0.5,0.5,0.5h10.198c0.276,0,0.5-0.224,0.5-0.5v-9.855l-11.755-5.342
			L503.691,69.179z"/>
		<path fill="#171B32" d="M533.596,48.514c0-3.94,3.733-5.806,8.399-5.806c4.213,0,8.04,2.038,8.283,6.772
			c0.014,0.268,0.224,0.485,0.493,0.485h9.997c0.281,0,0.513-0.235,0.506-0.516c-0.265-11.067-9.068-16.8-19.28-16.8
			c-10.68,0-19.598,5.807-19.598,15.865c0,19.805,28.723,12.443,28.723,22.709c0,3.94-3.733,5.91-9.125,5.91
			c-5.32,0-9.184-2.042-9.425-6.877c-0.013-0.268-0.224-0.486-0.493-0.486h-9.997c-0.281,0-0.513,0.235-0.506,0.516
			c0.266,11.072,9.085,16.904,20.421,16.904c11.406,0,20.323-5.702,20.323-15.967C562.318,51.417,533.596,58.988,533.596,48.514z"/>
		<path fill="#32B2F2" d="M493.399,46.784c-7.233-3.287-15.761-0.088-19.048,7.145c-3.287,7.233-0.087,15.761,7.146,19.048
			c7.233,3.287,15.761,0.088,19.048-7.145C503.832,58.6,500.632,50.071,493.399,46.784z M487.434,49.923
			c-2.662,0.003-5.162,1.042-7.042,2.925c-1.878,1.883-2.912,4.386-2.908,7.046c0.001,0.544-0.44,0.985-0.983,0.986h-0.001
			c-0.544,0-0.983-0.44-0.985-0.983c-0.004-3.187,1.233-6.184,3.484-8.44c2.25-2.256,5.245-3.5,8.433-3.503h0.001
			c0.544,0,0.985,0.44,0.985,0.983C488.417,49.481,487.977,49.922,487.434,49.923z"/>
		<path fill="#FFFFFF" d="M487.432,47.953h-0.001c-3.188,0.003-6.183,1.247-8.433,3.503c-2.25,2.256-3.487,5.253-3.484,8.44
			c0.001,0.544,0.441,0.983,0.985,0.983h0.001c0.544-0.001,0.985-0.442,0.983-0.986c-0.004-2.661,1.03-5.163,2.908-7.046
			c1.88-1.883,4.38-2.923,7.042-2.925c0.544-0.001,0.983-0.442,0.983-0.986C488.417,48.394,487.976,47.953,487.432,47.953z"/>
	</g>
</g>
</svg>
